# xmcd CD database file
#
# Track frame offsets:
#	182
#	20972
#	48145
#	59940
#	79417
#	95165
#	125345
#	145635
#	162600
#	175680
#	186392
#
# Disc length: 2747 seconds
#
# Revision: 6
# Processed by: cddbd v1.5.1PL2 Copyright (c) Steve Scherf et al.
# Submitted via: CDex 1.70beta1
#
DISCID=a40ab90b
DTITLE=Blues Legends - Howlin' The Blues
DYEAR=1994
DGENRE=Blues
TTITLE0=Muddy Waters - She's Nineteen Years Old
TTITLE1=Joe Carter - Stormy Monday
TTITLE2=Junior Wells - Cha Cha Cha In Blues
TTITLE3=King Curtis - Home Cookin'
TTITLE4=Louisiana Red - Lightnin' Bug
TTITLE5=Eddie Clearwater - Came Up The Hard Way
TTITLE6=Earl Hooker - The End Of The Blues
TTITLE7=Billy Boy Arnold - Back Door Friend
TTITLE8=Paul Orta and The Kingpins - Up The Line
TTITLE9=Mississippi Fred McDowell w/ Jo Ann Kelly - Glory Hallelujah
TTITLE10=Somebody Loan Me A Dime - Fenton Robinson
EXTD=YEAR: 1994
EXTT0=
EXTT1=
EXTT2=
EXTT3=
EXTT4=
EXTT5=
EXTT6=
EXTT7=
EXTT8=
EXTT9=
EXTT10=
PLAYORDER=
